<svg width="151" height="68" viewBox="0 0 151 68" fill="none" xmlns="http://www.w3.org/2000/svg">
<path d="M7.62919 14.9027L7.83382 14.8625C8.19956 14.8497 8.39854 14.9359 8.43075 15.1213C8.62073 19.4541 8.87817 28.1575 9.20301 41.2316C17.0055 32.8482 23.5977 26.2572 28.9796 21.4589C29.8679 20.637 30.4498 20.2118 30.7253 20.1831C31.0371 20.1381 31.2667 20.2149 31.4142 20.4135L31.4448 20.5235C31.471 20.7724 31.0027 21.255 30.04 21.9714C26.2156 25.4507 21.949 29.5986 17.24 34.4151C14.53 37.1748 11.8637 40.0495 9.24124 43.0391L9.60208 51.3419C11.9364 51.3886 16.8664 51.3797 24.3921 51.3149C29.1886 51.4204 32.6333 51.5532 34.7263 51.7131L34.7925 51.8006L34.829 51.9666C34.7273 52.2036 34.5763 52.3325 34.376 52.3534L34.282 52.3631C27.925 52.1052 19.8248 52.0032 9.98122 52.0572C9.97727 52.0199 9.86756 51.9998 9.65199 51.997L9.65794 52.053C10.0449 58.3781 10.3911 62.6317 10.6967 64.814C10.759 65.2856 10.9147 66.043 11.1637 67.0864C10.9829 67.2938 10.8181 67.4116 10.6691 67.4397L10.3874 67.4689C10.1007 67.5113 9.84911 66.745 9.63273 65.1698C9.30491 62.776 8.94363 58.3793 8.5488 51.9796C5.51206 51.7541 3.91927 51.1145 3.77042 50.0607L3.74882 49.8554C3.55864 48.5292 4.99842 46.0901 8.06813 42.5383C7.64272 33.802 7.24284 24.7674 6.86856 15.4345C7.03881 15.1275 7.29234 14.9503 7.62919 14.9027ZM5.23977 49.5873C5.36039 50.493 6.46422 51.0577 8.55125 51.2812L8.54538 51.2251C8.50142 50.9278 8.3676 48.6334 8.144 44.3418C6.07282 46.7961 5.10476 48.5446 5.23977 49.5873ZM31.4086 39.6796L31.634 39.6561C32.0347 39.6145 32.3928 39.8289 32.7081 40.2993C32.9891 40.0814 33.2171 39.9634 33.3925 39.9452L33.43 39.9413C33.6179 39.9218 33.7875 40.0299 33.939 40.2658C33.5969 43.0311 33.475 44.8804 33.5731 45.8136L33.6065 46.1309C33.6144 46.2056 33.6091 46.2753 33.5906 46.3402C33.7463 46.9781 33.9056 47.2886 34.0684 47.2718L34.1623 47.2619C34.7814 47.009 35.7883 45.6905 37.1832 43.3064C37.8499 41.9414 38.3021 41.2466 38.5401 41.2219L38.7279 41.2024C38.8907 41.1855 39.0037 41.2366 39.0669 41.3558L39.0806 41.4865C36.8501 45.555 35.1509 47.6939 33.9829 47.9033L33.7012 47.9325C33.1878 47.9859 32.8549 47.5299 32.7027 46.5645L32.611 46.2344C32.5298 45.4629 32.5826 44.0988 32.7691 42.1422L32.6752 42.152C32.2797 43.0861 31.5181 44.2094 30.3902 45.5216C29.6576 46.1387 29.0908 46.468 28.6901 46.5096C28.1438 46.4909 27.8496 46.2824 27.8078 45.8843L27.7587 45.4176C27.7251 44.377 28.2019 43.0129 29.1891 41.3253C29.98 40.2997 30.7198 39.7511 31.4086 39.6796ZM29.2417 45.0748L29.3416 45.121L29.398 45.1152C30.0734 44.3155 30.813 43.1631 31.6168 41.6581C31.8358 41.3334 31.9441 41.1586 31.9414 41.1337C31.8037 41.1481 31.6153 41.0419 31.3762 40.8151C31.0381 40.8502 30.5205 41.6462 29.8234 43.203C29.4081 44.1896 29.2143 44.8135 29.2417 45.0748ZM39.1675 28.0614L39.8062 27.9951C39.9064 27.9847 40.024 28.0793 40.1589 28.2792C39.9562 29.7218 39.8981 30.8537 39.9845 31.6749L40.0784 31.6652C46.8051 31.1048 50.9823 30.74 52.6103 30.5709L52.7446 30.7645L52.7564 30.8764C52.7035 31.0958 52.5018 31.2237 52.1511 31.2601L39.9601 32.5266C40.0198 38.5083 40.4411 45.2196 41.224 52.6609L41.4106 54.4341C41.4211 54.5336 41.3258 54.6504 41.1246 54.7846L40.7114 54.8275L40.493 54.737C40.2319 52.9778 40.0589 51.6938 39.9738 50.8849L39.8756 49.9517C39.0992 42.5727 38.6703 36.8118 38.5889 32.6691C34.9763 33.1072 32.1543 33.5388 30.1228 33.9636C29.763 33.9129 29.5766 33.8254 29.5635 33.701L29.5419 33.4957C29.4909 33.0104 32.5147 32.4509 38.6133 31.8174L38.6014 31.7054C38.3946 29.7393 38.5833 28.5247 39.1675 28.0614ZM46.5811 37.7071L47.0132 37.6623C47.464 37.6154 47.7936 37.9208 48.002 38.5784C48.1028 39.5365 47.5275 40.4454 46.276 41.3051C46.0262 41.4569 45.5697 41.6301 44.9065 41.8247C44.6243 42.873 44.5016 43.5713 44.5383 43.9197L44.5736 44.2557C44.6365 44.853 45.0639 45.186 45.8561 45.2547C46.8203 45.1544 48.2177 43.9967 50.0481 41.7812C50.4841 41.2328 50.9285 40.5828 51.3811 39.8313L51.6312 39.8619C51.7708 39.9858 51.8284 40.1119 51.8039 40.2402L51.8137 40.3335C51.5691 41.3779 50.4118 42.8316 48.3418 44.6945C47.3078 45.4561 46.4715 45.87 45.8329 45.9364L45.5323 45.9676C44.568 46.0677 43.8635 45.5686 43.4188 44.47C43.3695 44.3619 43.3356 44.2208 43.3173 44.0466L43.276 43.6546C43.1241 42.2112 43.7799 40.5014 45.243 38.5254C45.8345 38.0111 46.2806 37.7383 46.5811 37.7071ZM45.3729 40.663L45.4105 40.6591C45.903 40.4066 46.2414 40.013 46.4256 39.4781C46.491 39.2574 46.5165 39.0787 46.5022 38.9418C46.1724 39.1773 45.8729 39.5796 45.6037 40.1485C45.4459 40.4542 45.369 40.6256 45.3729 40.663ZM78.7252 6.98851L78.894 6.97095C80.3244 7.08655 81.3472 10.0686 81.9624 15.917C82.0985 16.6074 82.1684 16.9712 82.1721 17.0085C82.5359 20.4678 83.0097 27.677 83.5929 38.6361L86.1286 38.3726C86.2038 38.3648 86.2945 38.4434 86.4009 38.6086L86.418 38.7766C86.3667 39.0083 86.1279 39.1464 85.7024 39.1906L83.6732 39.4013C83.9737 45.0184 84.278 49.2952 84.5867 52.2319C84.9169 55.3677 85.3498 57.5618 85.8869 58.8142C85.6727 59.063 85.4027 59.2042 85.0769 59.2381C84.5138 59.2966 83.999 57.1109 83.5326 52.681L83.5245 52.6064C83.2314 49.819 82.8892 45.4832 82.4979 39.5989L82.4042 39.6087C80.8012 39.7752 77.39 40.444 72.171 41.6152C71.5467 45.4287 70.6238 51.8773 69.402 60.9608L68.9302 61.3495L68.1788 61.4275C68.0635 61.4144 67.9358 61.2829 67.7955 61.0333C68.264 57.4247 69.1649 51.0665 70.498 41.9588C67.7098 42.651 65.4066 43.2614 63.5886 43.7899L63.3256 43.8172C63.2379 43.8263 63.1134 43.726 62.9522 43.5164L62.9345 43.3484C62.8834 42.8631 65.4787 42.0211 70.7203 40.8225C71.8098 33.2496 73.2264 24.995 74.9703 16.0585C76.3464 10.1289 77.5983 7.10559 78.7252 6.98851ZM72.3091 40.5819C72.4152 40.508 72.4996 40.4678 72.5622 40.4613C77.1549 39.5942 80.4658 39.0552 82.4942 38.8445L82.4846 38.7511C81.9669 28.8923 81.4715 21.7169 80.9984 17.2248L80.8727 16.0302C80.3304 10.8786 79.6654 8.34376 78.8762 8.42573C77.9248 8.52462 76.3798 15.3208 74.2422 28.8142C73.4958 33.0304 72.8514 36.953 72.3091 40.5819ZM88.0039 22.9881L88.6421 22.9218C88.7425 22.9114 88.86 23.006 88.9947 23.2059C88.7923 24.6484 88.7343 25.7803 88.8206 26.6016L88.9143 26.5919C95.6409 26.0314 99.8183 25.6666 101.447 25.4975L101.58 25.6911L101.592 25.8031C101.54 26.0225 101.338 26.1504 100.987 26.1868L88.7961 27.4532C88.8556 33.4349 89.2773 40.1463 90.0599 47.5875L90.2466 49.3608C90.257 49.4602 90.1618 49.5771 89.9609 49.7112L89.5473 49.7541L89.3287 49.6636C89.0683 47.9045 88.895 46.6204 88.8095 45.8116L88.7113 44.8784C87.9354 37.4993 87.5062 31.7385 87.4252 27.5957C83.8123 28.0339 80.9902 28.4654 78.9588 28.8903C78.5987 28.8396 78.4128 28.7521 78.3994 28.6276L78.3778 28.4223C78.3272 27.937 81.351 27.3776 87.449 26.744L87.4378 26.6321C87.2303 24.666 87.4192 23.4514 88.0039 22.9881ZM93.8438 19.3057L94.1443 19.2745C94.3198 19.2562 94.4798 19.334 94.6248 19.5076L94.6323 19.5822C94.2841 21.6815 93.9948 24.7684 93.7649 28.8429C93.6816 31.5435 93.6749 33.7644 93.7441 35.5058C95.5993 33.1621 96.7604 31.9219 97.2268 31.7854L97.4522 31.7619C97.8025 31.7255 97.9929 31.8442 98.0212 32.1179C98.0331 32.2299 97.5124 32.8186 96.4599 33.884C94.7364 35.7865 93.8616 37.0409 93.8371 37.6473L93.9152 38.3939C93.9286 38.5184 94.2321 38.5749 94.8257 38.5635C96.2657 38.4139 98.2674 37.4638 100.831 35.7132C101.412 35.1117 101.772 34.8039 101.911 34.7896C102.152 34.8022 102.278 34.8521 102.287 34.9391L102.301 35.0698C101.63 35.907 100.584 36.6884 99.1675 37.4143C97.1873 38.4503 95.5836 39.032 94.357 39.1595L93.9435 39.2024L94.0692 40.397C94.0714 40.4219 94.0602 40.4356 94.0357 40.4382L94.0826 40.5276L94.1889 41.5356C94.2254 41.884 94.302 42.4296 94.418 43.1722C94.2834 43.3372 94.1599 43.4255 94.0468 43.4372L93.7657 43.4665C93.5901 43.4847 93.428 42.7845 93.2785 41.366C93.1788 40.4202 93.0858 39.6563 92.9995 39.0741C92.6819 38.9435 92.5078 38.7351 92.4781 38.4489L92.4506 38.1876C92.4602 37.7967 92.5845 37.4126 92.8232 37.0356C92.5145 33.9857 92.4669 29.8017 92.6797 24.4836C92.8731 22.1111 93.0657 20.5124 93.2576 19.6873C93.486 19.4498 93.6809 19.3226 93.8438 19.3057ZM102.896 32.0644L103.215 32.0313C103.415 32.0105 103.575 32.0882 103.695 32.2645L103.701 32.3204C103.472 34.7217 103.403 36.3454 103.491 37.1916L103.533 37.5835C103.584 38.0688 103.741 38.3607 104.005 38.4591C104.731 38.3836 105.994 36.9755 107.795 34.2349L108.071 34.1496L108.277 34.1282C108.328 34.1229 108.39 34.1731 108.464 34.2786C108.503 34.6394 107.555 35.9203 105.622 38.1213C104.983 38.6657 104.5 38.9548 104.174 38.9887L103.799 39.0277C103.236 39.0863 102.774 38.5492 102.414 37.4167C102.353 37.1966 102.308 36.9497 102.279 36.676L102.211 36.0226C102.061 33.5222 102.168 32.2532 102.531 32.2155L102.896 32.0644ZM102.351 30.4982C102.43 30.7668 102.657 30.8816 103.032 30.8426L103.202 30.825C103.415 30.8029 103.608 30.5941 103.782 30.1987C103.813 30.1326 103.824 30.0621 103.816 29.9875L103.789 29.7262C103.787 29.7138 103.799 29.7062 103.825 29.7037L103.781 29.6516L103.779 29.6329C103.758 29.4338 103.665 29.2736 103.5 29.1523L102.977 29.0557C102.423 29.2014 102.193 29.6026 102.288 30.2595L102.351 30.4982ZM109.491 30.5112L109.661 30.4936C109.94 30.5024 110.088 30.5876 110.105 30.7494C110.005 33.892 109.985 35.8062 110.045 36.4919L110.047 36.5106L110.084 36.5067C111.434 33.5738 112.516 32.0713 113.332 31.9992C113.96 31.9466 114.392 32.6941 114.631 34.2417C114.729 35.414 114.96 36.2204 115.322 36.6607C115.431 36.7249 115.535 36.7519 115.635 36.7414L115.71 36.7336C116.325 36.6823 117.642 35.4763 119.659 33.1156C119.652 33.0534 119.804 32.9873 120.113 32.9175C120.263 32.9019 120.389 32.9518 120.49 33.0671L120.487 33.2184C119.917 33.9442 119.192 34.7554 118.312 35.652C117.075 36.7742 116.131 37.3629 115.478 37.4181C114.662 37.4778 114.138 36.9535 113.907 35.8453C113.659 34.3239 113.484 33.5684 113.385 33.5788C113.376 33.5041 113.289 33.4503 113.12 33.4175C112.657 33.4656 111.878 34.9051 110.783 37.736C110.4 38.6689 110.121 39.1445 109.946 39.1628C109.851 39.2229 109.734 39.2602 109.597 39.2745L109.39 39.296C109.055 39.2427 108.873 39.0163 108.844 38.6168L108.787 38.0755C108.675 36.5273 108.683 34.1426 108.813 30.9214C108.988 30.6641 109.215 30.5274 109.491 30.5112ZM123.046 28.3106L123.403 28.2736C123.745 28.2882 123.928 28.3951 123.949 28.5942C123.975 28.843 123.586 29.11 122.78 29.3949C122.059 30.1239 121.74 30.8804 121.822 31.6644C121.887 32.2866 122.584 33.1263 123.911 34.1835C124.294 34.6972 124.493 35.0287 124.509 35.178L124.565 35.1722C126.566 33.0145 127.724 31.9194 128.036 31.8868L128.356 31.8536C128.418 31.8471 128.487 31.9029 128.563 32.0208L128.577 32.1514L124.913 35.9475C124.735 36.0665 124.611 36.5133 124.541 37.288C124.238 38.2629 123.657 39.2353 122.797 40.2052C122.202 40.808 121.71 41.1295 121.322 41.1698L121.135 41.1893C120.909 41.2127 120.736 41.1301 120.615 40.9414L120.595 40.7548C120.528 40.1202 121.533 38.6068 123.612 36.2147L123.584 35.9534C123.513 35.2814 122.721 34.4957 121.209 33.5961C120.705 33.1328 120.426 32.646 120.371 32.1358L120.358 32.0052C120.22 30.6986 120.891 29.5534 122.37 28.5695C122.645 28.4151 122.87 28.3289 123.046 28.3106ZM121.614 40.3282L121.62 40.3842C122.533 39.3206 123.092 38.5015 123.298 37.9266L123.241 37.9325C122.399 38.9509 121.856 39.7495 121.614 40.3282ZM130.396 29.0566L130.678 29.0273C130.953 28.9987 131.194 29.1121 131.397 29.3677L131.412 29.4983C131.286 29.7504 131.035 29.8959 130.66 29.9349C130.085 30.9633 129.789 32.1324 129.775 33.4421C129.765 33.5816 129.768 33.7384 129.787 33.9126L129.834 34.3606C129.918 35.157 130.17 35.6277 130.59 35.7727L130.609 35.7708C131.16 35.7135 131.42 34.6361 131.389 32.5385L131.301 31.6987C130.757 31.34 130.471 31.0238 130.442 30.7501L130.43 30.6381C130.398 30.3395 130.626 30.0957 131.113 29.9068L131.206 29.897C131.682 29.8476 132.006 30.2794 132.178 31.1923C132.373 31.3608 132.872 31.4663 133.674 31.5088L134.406 31.4326C134.945 31.3767 135.46 31.2225 135.953 30.9701L136.157 30.93C136.366 30.9838 136.455 31.1129 136.426 31.3172L136.287 31.4448C136.125 31.5874 135.792 31.729 135.288 31.8694C134.831 31.9797 134.452 32.0506 134.152 32.0817L133.813 32.1168C133.325 32.1676 132.822 32.1381 132.304 32.0284L132.308 32.0657C132.524 34.1189 132.006 35.5691 130.752 36.4163C130.559 36.4993 130.393 36.5479 130.256 36.5623L130.067 36.5818C129.266 36.6651 128.699 36.0825 128.365 34.834L128.3 34.2181C128.166 32.9489 128.416 31.5958 129.05 30.1587C129.472 29.4734 129.92 29.106 130.396 29.0566ZM137.421 27.6097L137.591 27.5922C137.87 27.6008 138.018 27.6861 138.035 27.8479C137.935 30.9906 137.915 32.9047 137.974 33.5904L137.977 33.6091L138.014 33.6052C139.364 30.6723 140.446 29.1698 141.262 29.0977C141.889 29.0451 142.322 29.7926 142.561 31.3402C142.659 32.5125 142.89 33.3188 143.253 33.7591C143.361 33.8234 143.465 33.8503 143.565 33.8399L143.64 33.8322C144.255 33.7808 145.571 32.5748 147.589 30.2141C147.583 30.1519 147.734 30.0859 148.043 30.016C148.193 30.0003 148.318 30.0502 148.419 30.1655L148.417 30.3168C147.847 31.0427 147.122 31.8539 146.242 32.7504C145.005 33.8727 144.061 34.4614 143.408 34.5166C142.591 34.5763 142.068 34.052 141.837 32.9438C141.589 31.4224 141.414 30.6668 141.314 30.6772C141.306 30.6026 141.218 30.5489 141.05 30.516C140.587 30.5641 139.808 32.0036 138.713 34.8346C138.33 35.7675 138.051 36.243 137.876 36.2612C137.781 36.3214 137.664 36.3586 137.527 36.373L137.32 36.3944C136.985 36.3411 136.804 36.1148 136.774 35.7153L136.717 35.174C136.605 33.6258 136.613 31.2411 136.743 28.0199C136.918 27.7626 137.144 27.6259 137.421 27.6097Z" fill="#FD5523"/>
</svg>
