<svg width="55" height="55" viewBox="0 0 55 55" fill="none" xmlns="http://www.w3.org/2000/svg">
<path d="M9.16667 23.3429H21.0833C21.5903 23.3429 22 22.9322 22 22.4262C22 21.9202 21.5903 21.5096 21.0833 21.5096H9.16667C8.65975 21.5096 8.25 21.9202 8.25 22.4262C8.25 22.9322 8.65975 23.3429 9.16667 23.3429Z" fill="#FD5523"/>
<path d="M33 27.0096H9.16667C8.65975 27.0096 8.25 27.4202 8.25 27.9262C8.25 28.4322 8.65975 28.8429 9.16667 28.8429H33C33.5069 28.8429 33.9167 28.4322 33.9167 27.9262C33.9167 27.4202 33.5069 27.0096 33 27.0096Z" fill="#FD5523"/>
<path d="M33 32.5096H9.16667C8.65975 32.5096 8.25 32.9202 8.25 33.4262C8.25 33.9322 8.65975 34.3429 9.16667 34.3429H33C33.5069 34.3429 33.9167 33.9322 33.9167 33.4262C33.9167 32.9202 33.5069 32.5096 33 32.5096Z" fill="#FD5523"/>
<path d="M49.566 2.32375L18.2692 2.25958C15.2717 2.25958 12.8333 4.69792 12.8333 7.69542V12.3924L5.43583 12.408C2.43833 12.408 0 14.8463 0 17.8438V37.2231C0 40.2206 2.43833 42.658 5.43583 42.658H11V51.8247C11 52.2033 11.2328 52.5433 11.5867 52.6799C11.6939 52.7212 11.8057 52.7413 11.9167 52.7413C12.1697 52.7413 12.4181 52.6359 12.595 52.4416L21.4903 42.6562L36.7308 42.5938C39.7283 42.5938 42.1667 40.1555 42.1667 37.1589V37.0553L46.9883 42.3592C47.1652 42.5535 47.4137 42.6589 47.6667 42.6589C47.7776 42.6589 47.8894 42.6388 47.9967 42.5975C48.3505 42.4609 48.5833 42.1208 48.5833 41.7422V32.5756H49.5642C52.5617 32.5756 55 30.1372 55 27.1407V7.75958C55 4.763 52.5626 2.32467 49.566 2.32375ZM40.3333 37.158C40.3333 39.1444 38.7173 40.7596 36.7272 40.7596L21.0797 40.8237C20.823 40.8247 20.5773 40.9338 20.405 41.1235L12.8333 49.4533V41.7404C12.8333 41.2344 12.4236 40.8237 11.9167 40.8237H5.43583C3.44942 40.8237 1.83333 39.2077 1.83333 37.2222V17.8429C1.83333 15.8565 3.44942 14.2404 5.43767 14.2404L13.75 14.223C13.7509 14.223 13.7509 14.223 13.7518 14.223L36.7308 14.1753C38.7173 14.1753 40.3333 15.7914 40.3333 17.7778V34.6821V37.158ZM53.1667 27.1388C53.1667 29.1252 51.5506 30.7404 49.5642 30.7404H47.6667C47.1598 30.7404 46.75 31.1511 46.75 31.6571V39.3699L42.1667 34.3283V17.7787C42.1667 14.7812 39.7283 12.3429 36.729 12.3429L14.6667 12.3878V7.6945C14.6667 5.70808 16.2827 4.092 18.2673 4.092L49.5633 4.15617C49.5642 4.15617 49.5642 4.15617 49.5651 4.15617C51.5515 4.15617 53.1676 5.77225 53.1676 7.75867L53.1667 27.1388Z" fill="#FD5523"/>
</svg>
