<svg width="35" height="35" viewBox="0 0 35 35" fill="none" xmlns="http://www.w3.org/2000/svg">
<g clip-path="url(#clip0_11_772)">
<path d="M31.6049 21.7212C31.6524 21.7212 31.697 21.7269 31.7415 21.7326C32.0326 21.2484 32.2969 20.7385 32.5345 20.2059C32.5405 20.1945 32.5434 20.186 32.5494 20.1746C32.9088 19.3628 33.1791 18.5197 33.3602 17.6453C33.5028 16.9674 33.5889 16.2724 33.6216 15.5603H29.3476C29.2704 17.6424 28.6229 19.6932 27.414 21.7183H31.6049V21.7212ZM3.28471 31.7615C3.28768 31.0437 3.7124 30.343 4.40147 29.5597L0.40368 27.1358C0.151219 27.0304 0.15716 26.8823 0.302696 26.7086L1.14918 26.0164C1.30363 25.9253 1.46699 25.8854 1.64222 25.9338L6.57858 26.7342L9.78929 23.3276L0.192801 17.0955C-0.0507493 16.9588 -0.0715402 16.805 0.177951 16.6256L1.56203 15.566L14.0782 18.9384L17.776 15.1473C19.0175 14.1191 20.2204 13.6576 21.1471 13.877C21.6579 13.9966 21.8361 14.1447 21.9936 14.6033C22.2995 15.5033 21.8243 16.711 20.7015 17.9557L16.7513 21.499L20.2679 33.5018L19.163 34.8291C18.9759 35.0684 18.8155 35.0484 18.6729 34.8177L12.1743 25.612L8.62203 28.691L9.45663 33.4249C9.50416 33.5929 9.46554 33.7496 9.3705 33.8977L8.64876 34.7095C8.46758 34.849 8.31314 34.8547 8.20324 34.6126L5.67566 30.7788C4.85293 31.4425 4.12228 31.8498 3.37381 31.8498C3.29956 31.8469 3.28471 31.8241 3.28471 31.7615ZM30.8594 23.0286H26.5527C25.3736 24.6663 23.8261 26.287 21.9134 27.8878L21.5035 26.4921C22.8282 25.3414 23.9509 24.1878 24.8746 23.0286H20.4877L20.262 22.2595L20.8619 21.7212H25.828C27.1764 19.6847 27.9011 17.631 27.9873 15.5632H25.3825C25.4508 15.1217 25.4597 14.683 25.4062 14.2558H27.9576C27.7794 12.2335 26.9982 10.1827 25.5993 8.09774H20.1313V10.6783C19.7066 10.7467 19.2818 10.8634 18.8541 11.023C18.8244 11.0343 18.7977 11.0457 18.768 11.0571V8.10059H13.3C11.9011 10.1827 11.1199 12.2363 10.9417 14.2586H14.5653L13.2911 15.566H13.2733L8.42303 14.2586H9.58138C9.7388 12.2192 10.4457 10.1685 11.708 8.10059H7.15181C6.86371 8.58195 6.60234 9.0861 6.36473 9.61304C6.35879 9.62443 6.35582 9.63298 6.34988 9.64437C5.99049 10.4561 5.72021 11.2992 5.53903 12.1737C5.4529 12.5867 5.38756 13.0025 5.34003 13.4269L4.00942 13.068C4.05694 12.6807 4.12228 12.2961 4.19951 11.9173C4.3985 10.9631 4.69849 10.0346 5.09648 9.13167C5.10242 9.12028 5.10539 9.10889 5.11133 9.09465C5.51527 8.19458 5.99346 7.34863 6.54888 6.55396C7.10429 5.76213 7.73396 5.02726 8.43788 4.35506C9.13883 3.68001 9.90512 3.07617 10.7308 2.54354C11.5595 2.01091 12.4446 1.54948 13.3802 1.16496H13.3831C14.3336 0.77474 15.3137 0.484212 16.3206 0.290527C17.3394 0.0968424 18.3789 0 19.4511 0C20.5204 0 21.5629 0.0968424 22.5727 0.290527C23.5677 0.481364 24.536 0.769043 25.4775 1.15072C25.4894 1.15641 25.5042 1.15926 25.5161 1.16496C26.4547 1.55233 27.3368 2.01091 28.1655 2.54354C28.9941 3.07617 29.7575 3.68001 30.4584 4.35506C31.1653 5.02726 31.792 5.76213 32.3474 6.55396C32.9028 7.34863 33.384 8.19743 33.785 9.09465V9.09749C34.1919 10.009 34.4948 10.9489 34.6968 11.9145C34.8988 12.8829 34.9997 13.8827 34.9997 14.908C34.9997 15.9334 34.8988 16.9332 34.6968 17.9016C34.4978 18.8558 34.1978 19.7843 33.7998 20.6844C33.7968 20.6958 33.7909 20.7072 33.785 20.7214C33.381 21.6215 32.9028 22.4674 32.3474 23.2621C31.792 24.054 31.1653 24.7888 30.4584 25.461C29.7545 26.1361 28.9912 26.7399 28.1655 27.2725C27.3368 27.8052 26.4517 28.2666 25.5161 28.6511H25.5132C24.5627 29.0413 23.5826 29.3319 22.5757 29.5256C22.5193 29.5369 22.4628 29.5455 22.4094 29.5569L22.0381 28.2951C22.1272 28.2808 22.2193 28.2638 22.3084 28.2467C23.2321 28.0701 24.1231 27.8052 24.9785 27.4548C25.8488 27.0959 26.6596 26.6744 27.4111 26.193C28.1625 25.7088 28.8575 25.1591 29.4991 24.5439L29.502 24.541C29.9921 24.071 30.4465 23.5669 30.8594 23.0286ZM8.03988 6.79321H12.5782C13.8702 5.00732 15.581 3.21004 17.7136 1.40137C17.3364 1.44409 16.9622 1.50106 16.5909 1.57227C15.6672 1.74886 14.7791 2.01375 13.9207 2.3641C13.0505 2.72298 12.2396 3.14453 11.4882 3.6259C10.7368 4.11011 10.0417 4.65983 9.4002 5.27507L9.39723 5.27791C8.90716 5.75073 8.45273 6.25773 8.03988 6.79321ZM21.1827 1.40137C23.3153 3.21004 25.0261 5.00448 26.3181 6.79321H30.8594C30.4465 6.25773 29.9921 5.75073 29.4991 5.27791L29.4961 5.27507C28.8575 4.65983 28.1595 4.11011 27.4081 3.6259C26.6567 3.14453 25.8458 2.72298 24.9756 2.3641C24.9637 2.3584 24.9548 2.35555 24.9429 2.34985C24.0964 2.00521 23.2172 1.74601 22.3054 1.57227C21.9371 1.50106 21.5629 1.44409 21.1827 1.40137ZM31.7445 8.10059H27.1913C28.4566 10.1656 29.1605 12.2192 29.3179 14.2586H33.6186C33.586 13.5466 33.4969 12.8516 33.3573 12.1737C33.1731 11.2878 32.8969 10.4362 32.5316 9.61304C32.294 9.0861 32.0356 8.58195 31.7445 8.10059ZM20.1313 2.25016V6.79321H24.6429C23.4578 5.295 21.9549 3.7797 20.1313 2.25016ZM18.768 6.79321V2.25016C16.9443 3.7797 15.4414 5.295 14.2564 6.79321H18.768Z" fill="#FD5523"/>
</g>
<defs>
<clipPath id="clip0_11_772">
<rect width="35" height="35" fill="white"/>
</clipPath>
</defs>
</svg>
